<?xml version="1.0" encoding="utf-8"?>
<!-- Generator: Adobe Illustrator 16.0.0, SVG Export Plug-In . SVG Version: 6.00 Build 0)  -->
<!DOCTYPE svg PUBLIC "-//W3C//DTD SVG 1.1//EN" "http://www.w3.org/Graphics/SVG/1.1/DTD/svg11.dtd">
<svg version="1.1" id="Capa_1" xmlns="http://www.w3.org/2000/svg" xmlns:xlink="http://www.w3.org/1999/xlink" x="0px" y="0px"
	 width="700px" height="700px" viewBox="0 0 700 700" enable-background="new 0 0 700 700" xml:space="preserve">
<g opacity="0">
	<polygon fill="#010002" points="535.73,193.854 578.114,260.458 649.262,220.345 	"/>
	<polygon fill="#010002" points="535.73,193.854 514.536,412.213 578.114,260.458 	"/>
	<polygon fill="#010002" points="535.73,193.854 474.799,275.406 418.601,454.22 514.536,412.213 	"/>
	<polygon fill="#010002" points="418.601,454.22 430.522,472.953 514.536,412.213 	"/>
	<polygon fill="#010002" points="418.601,454.22 418.601,483.738 456.634,507.58 466.569,507.58 	"/>
	<polygon fill="#010002" points="456.634,507.58 432.225,518.934 499.777,518.934 466.569,507.58 	"/>
	<polygon fill="#010002" points="474.799,275.406 245.464,389.507 372.053,400.292 451.823,348.516 	"/>
	<polygon fill="#010002" points="451.823,348.516 313.583,439.461 418.601,454.22 	"/>
	<polygon fill="#010002" points="245.464,389.507 372.053,400.292 313.583,439.461 259.655,451.382 51.892,467.276 	"/>
	<path fill="#010002" d="M101.278,493.389"/>
	<polygon fill="#010002" points="245.464,389.507 101.278,493.389 311.539,439.913 	"/>
</g>
</svg>
